<svg width="406" height="512" viewBox="0 0 406 512" fill="none" xmlns="http://www.w3.org/2000/svg">
<path d="M83.0506 134.848C58.528 80.9068 92.2346 40.2135 126.091 26.7308V26.8161C126.507 21.5895 127.189 16.8855 127.904 12.9281C128.586 9.2839 130.524 5.99417 133.381 3.63188C136.238 1.26958 139.834 -0.0156032 143.541 0.000142992H243.883C306.315 0.000142992 347.285 72.8108 324.096 136.555L308.245 180.149H103.648L83.0613 134.859L83.0506 134.848Z" fill="url(#paint0_linear_23_85)"/>
<path d="M351.989 512H53.3228C45.4944 512.007 37.7613 510.284 30.6766 506.954C23.5919 503.624 17.3309 498.769 12.3415 492.736C7.31801 486.709 3.68897 479.646 1.71402 472.052C-0.260921 464.458 -0.53293 456.522 0.917467 448.811L16.0748 368.054C21.3121 339.808 41.9095 317.483 69.8028 309.814L143.755 289.664C182.323 279.158 223 279.158 261.568 289.664L335.499 309.814H335.52C363.413 317.483 384.011 339.808 389.259 368.075L404.395 448.8C405.846 456.512 405.575 464.45 403.602 472.045C401.629 479.64 398.003 486.706 392.981 492.736C387.992 498.769 381.731 503.624 374.646 506.954C367.562 510.284 359.818 512.007 351.989 512Z" fill="url(#paint1_linear_23_85)"/>
<path d="M191.989 341.333H213.323V512H191.989V341.333Z" fill="url(#paint2_linear_23_85)"/>
<path d="M127.989 426.667H95.9894C93.1604 426.667 90.4473 425.543 88.447 423.543C86.4466 421.542 85.3228 418.829 85.3228 416C85.3228 413.171 86.4466 410.458 88.447 408.458C90.4473 406.457 93.1604 405.333 95.9894 405.333H127.989C130.818 405.333 133.532 406.457 135.532 408.458C137.532 410.458 138.656 413.171 138.656 416C138.656 418.829 137.532 421.542 135.532 423.543C133.532 425.543 130.818 426.667 127.989 426.667Z" fill="url(#paint3_linear_23_85)"/>
<path d="M181.323 277.333H223.99C233.795 277.333 243.504 279.265 252.563 283.017C261.622 286.77 269.853 292.269 276.787 299.203C283.72 306.136 289.22 314.367 292.973 323.426C296.725 332.485 298.656 342.195 298.656 352C298.656 357.658 296.409 363.084 292.408 367.085C288.407 371.086 282.981 373.333 277.323 373.333H127.99C122.332 373.333 116.905 371.086 112.905 367.085C108.904 363.084 106.656 357.658 106.656 352C106.656 332.197 114.523 313.206 128.526 299.203C142.528 285.2 161.52 277.333 181.323 277.333Z" fill="url(#paint4_linear_23_85)"/>
<path d="M149.323 256.427V320C149.323 334.145 154.942 347.711 164.944 357.712C174.946 367.714 188.511 373.333 202.656 373.333C216.801 373.333 230.367 367.714 240.368 357.712C250.37 347.711 255.989 334.145 255.989 320V256.427H149.323Z" fill="url(#paint5_linear_23_85)"/>
<path d="M298.667 256H245.323C242.494 256 239.781 254.876 237.78 252.876C235.78 250.876 234.656 248.162 234.656 245.333C234.656 242.505 235.78 239.791 237.78 237.791C239.781 235.791 242.494 234.667 245.323 234.667H298.667C304.555 234.667 309.334 229.877 309.334 224V192C309.334 189.171 310.457 186.458 312.458 184.458C314.458 182.457 317.171 181.333 320 181.333C322.829 181.333 325.542 182.457 327.543 184.458C329.543 186.458 330.667 189.171 330.667 192V224C330.667 241.643 316.31 256 298.667 256Z" fill="url(#paint6_linear_23_85)"/>
<path d="M309.323 213.334H287.989C285.16 213.334 282.447 212.21 280.447 210.209C278.447 208.209 277.323 205.496 277.323 202.667V138.667C277.323 135.838 278.447 133.125 280.447 131.124C282.447 129.124 285.16 128 287.989 128H309.323C326.965 128 341.323 142.358 341.323 160V181.334C341.323 198.976 326.965 213.334 309.323 213.334Z" fill="url(#paint7_linear_23_85)"/>
<path d="M63.9893 181.334V160C63.9893 142.358 78.3466 128 95.9893 128H117.323C120.152 128 122.865 129.124 124.865 131.124C126.865 133.125 127.989 135.838 127.989 138.667V202.667C127.989 205.496 126.865 208.209 124.865 210.209C122.865 212.21 120.152 213.334 117.323 213.334H95.9893C78.3466 213.334 63.9893 198.976 63.9893 181.334Z" fill="url(#paint8_linear_23_85)"/>
<path d="M106.656 213.334V138.667C106.656 127.351 111.151 116.499 119.153 108.497C127.155 100.495 138.007 96.0002 149.323 96.0002H255.99C267.305 96.0002 278.158 100.495 286.159 108.497C294.161 116.499 298.656 127.351 298.656 138.667V213.334C298.657 223.478 296.659 233.523 292.777 242.896C288.895 252.268 283.205 260.784 276.032 267.958L257.291 286.699C250.118 293.872 241.602 299.563 232.229 303.445C222.857 307.328 212.812 309.326 202.667 309.326C192.522 309.326 182.477 307.328 173.104 303.445C163.732 299.563 155.216 293.872 148.043 286.699L129.302 267.958C122.129 260.784 116.439 252.268 112.557 242.896C108.675 233.523 106.677 223.478 106.678 213.334H106.656Z" fill="url(#paint9_linear_23_85)"/>
<path d="M298.667 256H245.323C242.494 256 239.781 254.876 237.78 252.876C235.78 250.876 234.656 248.162 234.656 245.333C234.656 242.504 235.78 239.791 237.78 237.791C239.781 235.791 242.494 234.667 245.323 234.667H298.667V256Z" fill="url(#paint10_linear_23_85)"/>
<path d="M234.656 224H213.323C201.541 224 191.989 233.552 191.989 245.334C191.989 257.116 201.541 266.667 213.323 266.667H234.656C246.438 266.667 255.989 257.116 255.989 245.334C255.989 233.552 246.438 224 234.656 224Z" fill="url(#paint11_linear_23_85)"/>
<defs>
<linearGradient id="paint0_linear_23_85" x1="71.392" y1="32.0215" x2="297.632" y2="149.429" gradientUnits="userSpaceOnUse">
<stop stop-color="#3E4154"/>
<stop offset="1" stop-color="#1B2129"/>
</linearGradient>
<linearGradient id="paint1_linear_23_85" x1="202.656" y1="293.846" x2="202.656" y2="514.934" gradientUnits="userSpaceOnUse">
<stop stop-color="#4793EB"/>
<stop offset="1" stop-color="#2367EC"/>
</linearGradient>
<linearGradient id="paint2_linear_23_85" x1="202.656" y1="369.259" x2="202.656" y2="508.896" gradientUnits="userSpaceOnUse">
<stop stop-color="#2B50D2"/>
<stop offset="1" stop-color="#182EA5"/>
</linearGradient>
<linearGradient id="paint3_linear_23_85" x1="85.7814" y1="405.259" x2="136.533" y2="426.059" gradientUnits="userSpaceOnUse">
<stop stop-color="white"/>
<stop offset="1" stop-color="#DADFE0"/>
</linearGradient>
<linearGradient id="paint4_linear_23_85" x1="202.656" y1="289.771" x2="202.656" y2="369.707" gradientUnits="userSpaceOnUse">
<stop stop-color="#6FC6FC"/>
<stop offset="1" stop-color="#50A7F6"/>
</linearGradient>
<linearGradient id="paint5_linear_23_85" x1="156.309" y1="282.293" x2="254.144" y2="329.984" gradientUnits="userSpaceOnUse">
<stop stop-color="#F1D2BD"/>
<stop offset="1" stop-color="#FEB592"/>
</linearGradient>
<linearGradient id="paint6_linear_23_85" x1="282.656" y1="205.387" x2="282.656" y2="253.547" gradientUnits="userSpaceOnUse">
<stop stop-color="#C6CBCC"/>
<stop offset="1" stop-color="#9FA5A6"/>
</linearGradient>
<linearGradient id="paint7_linear_23_85" x1="309.323" y1="130.784" x2="309.323" y2="214.059" gradientUnits="userSpaceOnUse">
<stop stop-color="#4793EB"/>
<stop offset="1" stop-color="#2367EC"/>
</linearGradient>
<linearGradient id="paint8_linear_23_85" x1="95.9893" y1="130.784" x2="95.9893" y2="214.059" gradientUnits="userSpaceOnUse">
<stop stop-color="#4793EB"/>
<stop offset="1" stop-color="#2367EC"/>
</linearGradient>
<linearGradient id="paint9_linear_23_85" x1="202.656" y1="102.656" x2="202.656" y2="310.379" gradientUnits="userSpaceOnUse">
<stop stop-color="#F1D2BD"/>
<stop offset="0.314" stop-color="#F2CFB9"/>
<stop offset="0.608" stop-color="#F5C7AD"/>
<stop offset="0.894" stop-color="#FBBB9B"/>
<stop offset="1" stop-color="#FEB592"/>
</linearGradient>
<linearGradient id="paint10_linear_23_85" x1="266.656" y1="8.19429e-05" x2="266.656" y2="253.547" gradientUnits="userSpaceOnUse">
<stop stop-color="#C6CBCC"/>
<stop offset="1" stop-color="#9FA5A6"/>
</linearGradient>
<linearGradient id="paint11_linear_23_85" x1="223.989" y1="222.912" x2="223.989" y2="262.07" gradientUnits="userSpaceOnUse">
<stop stop-color="#4793EB"/>
<stop offset="1" stop-color="#2367EC"/>
</linearGradient>
</defs>
</svg>
