<svg width="512" height="239" viewBox="0 0 512 239" fill="none" xmlns="http://www.w3.org/2000/svg">
<path fill-rule="evenodd" clip-rule="evenodd" d="M120.056 0H374.476L346.21 196.718H91.7612L120.056 0Z" fill="#CD353E"/>
<path fill-rule="evenodd" clip-rule="evenodd" d="M120.056 0H374.476L346.21 196.718H332.926L334.798 183.58L359.319 13.138H118.183L120.056 0Z" fill="#B41C25"/>
<path fill-rule="evenodd" clip-rule="evenodd" d="M99.2522 144.722H353.672L346.21 196.718H91.7612L99.2522 144.722Z" fill="#FFC06C"/>
<path fill-rule="evenodd" clip-rule="evenodd" d="M346.21 196.718H332.926L334.798 183.58L340.387 144.722H353.672L346.21 196.718Z" fill="#EDA558"/>
<path fill-rule="evenodd" clip-rule="evenodd" d="M126.083 179.162H483.295C487.626 179.162 490.639 182.702 490.025 187.033L487.245 206.403C486.631 210.734 482.593 214.274 478.262 214.274H121.021C116.72 214.274 113.677 210.734 114.32 206.403L117.1 187.033C117.715 182.702 121.753 179.162 126.083 179.162Z" fill="#CD353E"/>
<path fill-rule="evenodd" clip-rule="evenodd" d="M362.42 214.274H494.677L512 93.75L476.653 34.936C473.347 29.464 467.904 26.509 461.057 26.509H404.204C396.07 26.509 388.462 33.151 387.291 41.286L362.42 214.274Z" fill="#FF4C4C"/>
<path fill-rule="evenodd" clip-rule="evenodd" d="M409.032 47.489C406.808 62.909 404.614 78.33 402.39 93.75H485.753L458.307 48.074C457.985 47.577 457.868 47.489 457.254 47.489H409.032Z" fill="#E1EFFF"/>
<path d="M91.907 78.7399C91.907 80.6567 91.1456 82.4949 89.7903 83.8502C88.4349 85.2055 86.5967 85.9669 84.68 85.9669H7.227C5.31028 85.9669 3.47206 85.2055 2.11674 83.8502C0.761414 82.4949 0 80.6567 0 78.7399C0 76.8232 0.761414 74.985 2.11674 73.6297C3.47206 72.2744 5.31028 71.5129 7.227 71.5129H84.68C85.6291 71.5129 86.5688 71.6999 87.4457 72.0631C88.3225 72.4263 89.1192 72.9586 89.7903 73.6297C90.4613 74.3008 90.9937 75.0975 91.3569 75.9743C91.7201 76.8511 91.907 77.7909 91.907 78.7399ZM78.448 100.627H29.846C27.9293 100.627 26.0911 101.388 24.7357 102.744C23.3804 104.099 22.619 105.937 22.619 107.854C22.619 109.771 23.3804 111.609 24.7357 112.964C26.0911 114.32 27.9293 115.081 29.846 115.081H78.448C80.3647 115.081 82.2029 114.32 83.5583 112.964C84.9136 111.609 85.675 109.771 85.675 107.854C85.675 105.937 84.9136 104.099 83.5583 102.744C82.2029 101.388 80.3647 100.627 78.448 100.627ZM72.215 129.741H47.9C45.9833 129.741 44.1451 130.502 42.7897 131.858C41.4344 133.213 40.673 135.051 40.673 136.968C40.673 138.885 41.4344 140.723 42.7897 142.078C44.1451 143.434 45.9833 144.195 47.9 144.195H72.215C74.1317 144.195 75.9699 143.434 77.3253 142.078C78.6806 140.723 79.442 138.885 79.442 136.968C79.442 135.051 78.6806 133.213 77.3253 131.858C75.9699 130.502 74.1317 129.741 72.215 129.741Z" fill="#363D52"/>
<path d="M159.001 55.3901L157.948 62.4711H169.068C170.985 62.4711 172.823 63.2325 174.178 64.5878C175.534 65.9431 176.295 67.7814 176.295 69.6981C176.295 71.6148 175.534 73.453 174.178 74.8083C172.823 76.1637 170.985 76.9251 169.068 76.9251H155.798L152.72 97.6221C152.589 98.568 152.271 99.4784 151.786 100.301C151.3 101.123 150.657 101.841 149.892 102.414C149.127 102.986 148.257 103.401 147.331 103.635C146.405 103.869 145.442 103.917 144.497 103.776C143.553 103.636 142.645 103.309 141.828 102.816C141.01 102.323 140.298 101.672 139.733 100.902C139.168 100.132 138.762 99.258 138.537 98.3299C138.312 97.4018 138.273 96.4383 138.422 95.4951L145.62 47.0981C145.875 45.3844 146.737 43.8193 148.049 42.6879C149.362 41.5565 151.037 40.9341 152.769 40.9341H181.854C183.771 40.9341 185.609 41.6955 186.964 43.0508C188.32 44.4062 189.081 46.2444 189.081 48.1611C189.081 50.0778 188.32 51.916 186.964 53.2713C185.609 54.6267 183.771 55.3881 181.854 55.3881H159.001V55.3901ZM226.946 95.9241C227.115 97.8335 226.518 99.7316 225.287 101.201C224.056 102.67 222.292 103.59 220.382 103.759C216.406 104.118 212.899 101.171 212.547 97.1951L212.114 92.2871H200.06L197.403 99.1641C196.712 100.952 195.339 102.391 193.586 103.167C191.834 103.943 189.845 103.991 188.057 103.301C187.172 102.959 186.362 102.446 185.675 101.791C184.988 101.136 184.437 100.352 184.053 99.4845C183.668 98.6165 183.459 97.6814 183.436 96.7325C183.414 95.7835 183.578 94.8394 183.92 93.9541L202.617 45.5571C203.143 44.1962 204.069 43.0263 205.272 42.2013C206.475 41.3764 207.9 40.9349 209.359 40.9351H215.474C217.281 40.9353 219.022 41.6121 220.355 42.8322C221.688 44.0524 222.515 45.7273 222.674 47.5271L226.946 95.9241ZM210.838 77.8331L209.872 66.8901L205.644 77.8331H210.838ZM270.513 40.9351H263.315C253.045 40.9351 243.801 48.9471 242.266 59.1881C241.419 64.9131 242.566 69.6441 245.677 73.2491C250.524 78.8671 258.337 79.5871 264.602 79.5871C265.681 79.5871 266.548 79.9311 267.109 80.5821C267.695 81.2621 267.924 82.2651 267.75 83.4331C267.301 86.5191 264.086 89.3301 261.004 89.3301H253.806C253.486 89.3301 253.057 89.2731 252.822 89.0021C252.615 88.7621 252.542 88.3471 252.617 87.8331C252.755 86.8941 252.706 85.9371 252.474 85.0168C252.242 84.0965 251.831 83.231 251.265 82.4696C250.698 81.7082 249.987 81.0659 249.172 80.5794C248.357 80.0929 247.454 79.7716 246.515 79.6341C245.576 79.4956 244.619 79.5436 243.698 79.7754C242.778 80.0072 241.912 80.4183 241.15 80.985C240.389 81.5518 239.747 82.2631 239.26 83.0784C238.774 83.8936 238.453 84.7967 238.316 85.7361C237.632 90.4011 238.932 95.0361 241.884 98.4531C244.812 101.842 249.158 103.786 253.806 103.786H261.004C271.318 103.786 280.565 95.7601 282.051 85.5401C282.84 80.2511 281.385 75.0051 278.059 71.1461C274.765 67.3251 269.861 65.1331 264.604 65.1331C257.845 65.1331 256.67 63.8611 256.623 63.8061C256.563 63.7371 256.313 63.0231 256.565 61.3171C257.03 58.2151 260.248 55.3891 263.316 55.3891H270.514C270.834 55.3891 271.264 55.4461 271.498 55.7171C271.705 55.9571 271.777 56.3721 271.702 56.8851C271.424 58.7816 271.91 60.7111 273.054 62.2491C274.198 63.787 275.907 64.8075 277.803 65.0861C278.742 65.2243 279.699 65.1762 280.62 64.9443C281.54 64.7125 282.406 64.3015 283.168 63.735C283.929 63.1684 284.572 62.4572 285.059 61.6422C285.545 60.8272 285.867 59.9243 286.004 58.9851C286.689 54.3201 285.389 49.6851 282.436 46.2681C279.508 42.8791 275.162 40.9351 270.513 40.9351ZM329.297 40.9351H300.212C298.295 40.9351 296.457 41.6965 295.102 43.0518C293.747 44.4071 292.985 46.2454 292.985 48.1621C292.985 50.0788 293.747 51.917 295.102 53.2723C296.457 54.6277 298.295 55.3891 300.212 55.3891H306.373L300.408 95.4951C300.146 97.382 300.639 99.2961 301.78 100.821C302.922 102.347 304.619 103.359 306.504 103.64C308.388 103.92 310.307 103.445 311.843 102.318C313.379 101.191 314.408 99.5036 314.706 97.6221L320.987 55.3901H329.297C331.214 55.3901 333.052 54.6286 334.408 53.2732C335.763 51.9178 336.525 50.0794 336.525 48.1626C336.525 46.2457 335.763 44.4074 334.408 43.052C333.052 41.6966 331.214 40.9351 329.297 40.9351Z" fill="white"/>
<path fill-rule="evenodd" clip-rule="evenodd" d="M447.949 47.489L475.746 93.75H485.753L458.307 48.074C457.985 47.577 457.868 47.489 457.254 47.489H447.949Z" fill="#D7D7E3"/>
<path fill-rule="evenodd" clip-rule="evenodd" d="M362.42 214.274L367.482 179.162H358.382L353.291 214.274H362.42Z" fill="#B41C25"/>
<path fill-rule="evenodd" clip-rule="evenodd" d="M469.192 39.443L502.929 95.565L490.025 184.78L486.572 208.715L485.753 214.274H494.677L512 93.75L476.653 34.936C473.347 29.464 467.904 26.509 461.057 26.509H404.204C398.235 26.509 392.529 30.108 389.486 35.229H461.057C464.569 35.229 467.349 36.4 469.192 39.443Z" fill="#D11E1E"/>
<path fill-rule="evenodd" clip-rule="evenodd" d="M217.347 154.7C240.492 154.7 256.556 173.456 253.22 196.63C249.914 219.775 228.436 238.531 205.291 238.531C182.117 238.531 166.053 219.775 169.388 196.63C172.695 173.456 194.173 154.7 217.347 154.7Z" fill="#363D52"/>
<path fill-rule="evenodd" clip-rule="evenodd" d="M217.347 154.7C240.492 154.7 256.556 173.456 253.22 196.63C250.001 219.161 229.578 237.536 207.135 238.502C225.774 233.733 241.341 217.405 244.15 197.976C247.456 174.802 231.392 156.046 208.247 156.046C207.603 156.046 206.989 156.075 206.374 156.075C209.96 155.161 213.646 154.699 217.347 154.7Z" fill="#2A3146"/>
<path fill-rule="evenodd" clip-rule="evenodd" d="M214.011 177.786C224.398 177.786 231.626 186.213 230.134 196.63C228.642 207.017 218.986 215.445 208.598 215.445C198.211 215.445 190.983 207.018 192.475 196.63C193.968 186.213 203.624 177.786 214.011 177.786Z" fill="#E1EFFF"/>
<path fill-rule="evenodd" clip-rule="evenodd" d="M214.011 177.786C224.398 177.786 231.626 186.213 230.134 196.63C228.729 206.432 220.068 214.479 210.354 215.357C217.698 212.577 223.58 205.789 224.721 197.888C226.213 187.471 218.986 179.044 208.598 179.044C208.013 179.044 207.428 179.073 206.842 179.132C209.125 178.284 211.553 177.786 214.011 177.786Z" fill="#D7D7E3"/>
<path fill-rule="evenodd" clip-rule="evenodd" d="M437.093 154.788C460.238 154.788 476.331 173.573 472.996 196.718C469.66 219.863 448.183 238.648 425.038 238.648C401.893 238.648 385.8 219.863 389.135 196.718C392.471 173.573 413.948 154.788 437.093 154.788Z" fill="#363D52"/>
<path fill-rule="evenodd" clip-rule="evenodd" d="M437.093 154.788C460.238 154.788 476.331 173.573 472.996 196.718C469.748 219.249 449.354 237.624 426.911 238.59C445.521 233.85 461.117 217.493 463.896 198.064C467.232 174.919 451.168 156.134 427.993 156.134C427.379 156.134 426.764 156.163 426.12 156.193C429.69 155.285 433.377 154.788 437.093 154.788Z" fill="#2A3146"/>
<path fill-rule="evenodd" clip-rule="evenodd" d="M433.787 177.903C444.174 177.903 451.373 186.33 449.88 196.717C448.388 207.104 438.761 215.532 428.374 215.532C417.957 215.532 410.759 207.105 412.251 196.717C413.743 186.331 423.37 177.903 433.787 177.903Z" fill="#E1EFFF"/>
<path fill-rule="evenodd" clip-rule="evenodd" d="M433.787 177.903C444.174 177.903 451.373 186.33 449.88 196.717C448.475 206.519 439.814 214.566 430.129 215.444C437.444 212.694 443.325 205.905 444.467 197.975C445.959 187.588 438.761 179.161 428.344 179.161C427.759 179.161 427.174 179.19 426.588 179.22C428.89 178.356 431.328 177.91 433.787 177.903Z" fill="#D7D7E3"/>
</svg>
