<svg width="370" height="512" viewBox="0 0 370 512" fill="none" xmlns="http://www.w3.org/2000/svg">
<path d="M317.348 476.09L268.496 462.297C266.699 461.789 264.782 461.904 263.058 462.624C261.335 463.344 259.906 464.626 259.004 466.262L234.543 510.742C233.563 512.527 230.965 512.379 230.172 510.512L208.192 457.988L155.27 331.535L194.465 237.902L227.773 251.84L261.121 331.527L320.25 472.813C321.031 474.691 319.297 476.641 317.348 476.09Z" fill="#FF4A4A"/>
<path d="M261.121 331.527L208.191 457.988L155.27 331.535L194.465 237.902L227.77 251.84L261.121 331.527Z" fill="#EF3535"/>
<path d="M134.773 510.742L110.309 466.266C109.41 464.629 107.983 463.345 106.26 462.624C104.537 461.903 102.621 461.787 100.824 462.296L51.9699 476.09C50.0169 476.64 48.2859 474.687 49.0709 472.812L152.041 226.773L242.111 264.469L139.141 510.508C138.356 512.383 135.755 512.523 134.774 510.742H134.773Z" fill="#FF4A4A"/>
<path d="M206.629 7.89L236.684 32.664C241.995 37.0416 248.493 39.7332 255.344 40.394L294.114 44.125C310.574 45.711 323.602 58.738 325.188 75.199L328.922 113.969C329.581 120.82 332.273 127.318 336.652 132.629L361.426 162.684C371.946 175.445 371.946 193.867 361.426 206.629L336.652 236.684C332.273 241.995 329.581 248.493 328.922 255.344L325.187 294.114C323.602 310.574 310.574 323.602 294.113 325.188L255.343 328.922C248.493 329.582 241.995 332.273 236.683 336.648L206.629 361.426C193.871 371.941 175.445 371.941 162.684 361.426L132.633 336.648C127.319 332.272 120.821 329.582 113.969 328.922L75.203 325.187C58.743 323.602 45.711 310.574 44.129 294.113L40.395 255.343C39.7357 248.492 37.0439 241.994 32.665 236.683L7.89 206.63C-2.63 193.872 -2.63 175.446 7.89 162.685L32.663 132.634C37.0413 127.322 39.733 120.822 40.393 113.97L44.124 75.2C45.71 58.743 58.737 45.712 75.198 44.13L113.968 40.396C120.819 39.7367 127.317 37.0449 132.628 32.666L162.684 7.89C175.445 -2.63 193.871 -2.63 206.629 7.89Z" fill="#FFD782"/>
<path d="M299.059 184.656C299.059 247.84 247.839 299.059 184.656 299.059C121.476 299.059 70.2578 247.839 70.2578 184.656C70.2578 121.476 121.477 70.2581 184.656 70.2581C247.84 70.2581 299.059 121.477 299.059 184.656Z" fill="#FF8000"/>
<path d="M184.656 70.2581C174.738 70.2581 165.109 71.5201 155.93 73.8951C205.207 86.637 241.605 131.395 241.605 184.656C241.605 237.917 205.211 282.676 155.93 295.418C165.313 297.84 174.966 299.062 184.656 299.055C247.84 299.055 299.059 247.835 299.059 184.656C299.059 121.473 247.839 70.2581 184.656 70.2581Z" fill="#FF5F06"/>
<path d="M158.043 242.785C153.773 242.785 149.68 241.09 146.66 238.07L112.488 203.895C106.199 197.609 106.199 187.415 112.488 181.125C118.773 174.835 128.968 174.835 135.258 181.125L158.047 203.915L221.257 140.699C227.547 134.414 237.742 134.414 244.027 140.699C250.317 146.989 250.317 157.184 244.027 163.473L169.43 238.07C167.935 239.565 166.16 240.751 164.206 241.56C162.252 242.369 160.158 242.786 158.043 242.785Z" fill="white"/>
</svg>
