<svg width="452" height="510" viewBox="0 0 452 510" fill="none" xmlns="http://www.w3.org/2000/svg">
<path d="M75.7021 232.9V388.5L210.802 466.5L211.902 465.9V309.5L75.7021 232.9Z" fill="#F16932"/>
<path d="M211.902 309.5V465.9L345.902 388.5V232.9L211.902 309.5Z" fill="#F88D28"/>
<path d="M345.902 232.6V233L211.902 309.5C171.702 286.9 116.002 255.5 75.8022 232.9V232.6L210.902 154.6C250.702 177.7 306.002 209.5 345.902 232.6Z" fill="#FEC233"/>
<path d="M162.402 281.6L162.102 281.8V328.9L125.502 308.4V260.9L162.402 281.6Z" fill="#6A478D"/>
<path d="M297.402 204.6L287.902 209.8L162.402 281.6L125.502 260.9V260.6L260.502 183.3L297.402 204.6Z" fill="#806CB6"/>
<path d="M444.202 219.1C420.202 119.7 327.202 46.7 226.002 40.8V0C199.802 16.9 147.202 51 121.102 67.9C147.302 84.8 199.902 118.9 226.002 135.8V98.5C226.002 94.3 287.102 109.6 293.802 112.4C409.102 158.7 446.402 313.6 370.202 410.3C318.002 478.5 224.302 503.3 143.902 475C29.2023 436 -27.9977 299.3 24.8023 190.1C-57.4977 343.1 77.4023 529.1 247.502 508.4C387.102 493.9 480.302 352.9 444.202 219.1Z" fill="#FF80B4"/>
</svg>
